<mxfile host="app.diagrams.net" modified="2023-10-21T06:55:53.502Z" agent="Mozilla/5.0 (Windows NT 10.0; Win64; x64) AppleWebKit/537.36 (KHTML, like Gecko) Chrome/117.0.0.0 Safari/537.36" etag="NL0C-btk2SciPjdcinE5" version="22.0.5" type="github">
  <diagram name="Trang-1" id="gOGAdB3mvaAV_hnkUyya">
    <mxGraphModel dx="1767" dy="668" grid="0" gridSize="10" guides="1" tooltips="1" connect="1" arrows="1" fold="1" page="1" pageScale="1" pageWidth="2339" pageHeight="3300" math="0" shadow="0">
      <root>
        <mxCell id="0" />
        <mxCell id="1" parent="0" />
        <mxCell id="IVClyzHklUzwyvKMVS32-1" value="Khách hàng" style="text;html=1;align=center;verticalAlign=middle;resizable=0;points=[];autosize=1;strokeColor=none;fillColor=none;" vertex="1" parent="1">
          <mxGeometry x="125" y="129" width="90" height="30" as="geometry" />
        </mxCell>
        <mxCell id="IVClyzHklUzwyvKMVS32-2" value="Nhân viên" style="text;html=1;align=center;verticalAlign=middle;resizable=0;points=[];autosize=1;strokeColor=none;fillColor=none;" vertex="1" parent="1">
          <mxGeometry x="520" y="129" width="80" height="30" as="geometry" />
        </mxCell>
        <mxCell id="IVClyzHklUzwyvKMVS32-4" value="" style="endArrow=none;dashed=1;html=1;rounded=0;" edge="1" parent="1">
          <mxGeometry width="50" height="50" relative="1" as="geometry">
            <mxPoint x="270" y="550" as="sourcePoint" />
            <mxPoint x="270" y="120" as="targetPoint" />
          </mxGeometry>
        </mxCell>
        <mxCell id="IVClyzHklUzwyvKMVS32-6" value="" style="endArrow=none;dashed=1;html=1;rounded=0;exitX=-0.033;exitY=1.073;exitDx=0;exitDy=0;exitPerimeter=0;" edge="1" parent="1" source="IVClyzHklUzwyvKMVS32-1">
          <mxGeometry width="50" height="50" relative="1" as="geometry">
            <mxPoint x="280" y="450" as="sourcePoint" />
            <mxPoint x="960" y="160" as="targetPoint" />
          </mxGeometry>
        </mxCell>
        <mxCell id="IVClyzHklUzwyvKMVS32-7" value="" style="html=1;verticalAlign=bottom;startArrow=circle;startFill=1;endArrow=open;startSize=6;endSize=8;curved=0;rounded=0;" edge="1" parent="1">
          <mxGeometry width="80" relative="1" as="geometry">
            <mxPoint x="160" y="180" as="sourcePoint" />
            <mxPoint x="160" y="220" as="targetPoint" />
          </mxGeometry>
        </mxCell>
        <mxCell id="IVClyzHklUzwyvKMVS32-21" style="edgeStyle=orthogonalEdgeStyle;rounded=0;orthogonalLoop=1;jettySize=auto;html=1;exitX=1;exitY=0.5;exitDx=0;exitDy=0;" edge="1" parent="1" source="IVClyzHklUzwyvKMVS32-8" target="IVClyzHklUzwyvKMVS32-9">
          <mxGeometry relative="1" as="geometry" />
        </mxCell>
        <mxCell id="IVClyzHklUzwyvKMVS32-8" value="Gửi yêu cầu đặt vé" style="rounded=1;whiteSpace=wrap;html=1;" vertex="1" parent="1">
          <mxGeometry x="110" y="220" width="100" height="50" as="geometry" />
        </mxCell>
        <mxCell id="IVClyzHklUzwyvKMVS32-22" style="edgeStyle=orthogonalEdgeStyle;rounded=0;orthogonalLoop=1;jettySize=auto;html=1;exitX=1;exitY=0.5;exitDx=0;exitDy=0;entryX=0;entryY=0.5;entryDx=0;entryDy=0;" edge="1" parent="1" source="IVClyzHklUzwyvKMVS32-9" target="IVClyzHklUzwyvKMVS32-10">
          <mxGeometry relative="1" as="geometry" />
        </mxCell>
        <mxCell id="IVClyzHklUzwyvKMVS32-9" value="Kiểm tra còn vé hay không" style="rounded=1;whiteSpace=wrap;html=1;" vertex="1" parent="1">
          <mxGeometry x="350" y="220" width="100" height="50" as="geometry" />
        </mxCell>
        <mxCell id="IVClyzHklUzwyvKMVS32-23" style="edgeStyle=orthogonalEdgeStyle;rounded=0;orthogonalLoop=1;jettySize=auto;html=1;exitX=1;exitY=0.5;exitDx=0;exitDy=0;entryX=0;entryY=0.5;entryDx=0;entryDy=0;" edge="1" parent="1" source="IVClyzHklUzwyvKMVS32-10" target="IVClyzHklUzwyvKMVS32-12">
          <mxGeometry relative="1" as="geometry" />
        </mxCell>
        <mxCell id="IVClyzHklUzwyvKMVS32-30" style="edgeStyle=orthogonalEdgeStyle;rounded=0;orthogonalLoop=1;jettySize=auto;html=1;exitX=0.5;exitY=1;exitDx=0;exitDy=0;" edge="1" parent="1" source="IVClyzHklUzwyvKMVS32-10" target="IVClyzHklUzwyvKMVS32-13">
          <mxGeometry relative="1" as="geometry" />
        </mxCell>
        <mxCell id="IVClyzHklUzwyvKMVS32-10" value="" style="rhombus;whiteSpace=wrap;html=1;" vertex="1" parent="1">
          <mxGeometry x="540" y="220" width="80" height="50" as="geometry" />
        </mxCell>
        <mxCell id="IVClyzHklUzwyvKMVS32-26" style="edgeStyle=orthogonalEdgeStyle;rounded=0;orthogonalLoop=1;jettySize=auto;html=1;exitX=0.5;exitY=1;exitDx=0;exitDy=0;" edge="1" parent="1" source="IVClyzHklUzwyvKMVS32-12">
          <mxGeometry relative="1" as="geometry">
            <mxPoint x="750" y="320" as="targetPoint" />
          </mxGeometry>
        </mxCell>
        <mxCell id="IVClyzHklUzwyvKMVS32-12" value="Thông báo hết vé" style="rounded=1;whiteSpace=wrap;html=1;" vertex="1" parent="1">
          <mxGeometry x="700" y="220" width="100" height="50" as="geometry" />
        </mxCell>
        <mxCell id="IVClyzHklUzwyvKMVS32-31" style="edgeStyle=orthogonalEdgeStyle;rounded=0;orthogonalLoop=1;jettySize=auto;html=1;exitX=0;exitY=0.5;exitDx=0;exitDy=0;entryX=0.5;entryY=0;entryDx=0;entryDy=0;" edge="1" parent="1" source="IVClyzHklUzwyvKMVS32-13" target="IVClyzHklUzwyvKMVS32-14">
          <mxGeometry relative="1" as="geometry" />
        </mxCell>
        <mxCell id="IVClyzHklUzwyvKMVS32-13" value="Yêu cầu thông tin khách hàng" style="rounded=1;whiteSpace=wrap;html=1;" vertex="1" parent="1">
          <mxGeometry x="530" y="320" width="100" height="40" as="geometry" />
        </mxCell>
        <mxCell id="IVClyzHklUzwyvKMVS32-32" style="edgeStyle=orthogonalEdgeStyle;rounded=0;orthogonalLoop=1;jettySize=auto;html=1;exitX=1;exitY=0.5;exitDx=0;exitDy=0;entryX=0;entryY=0.5;entryDx=0;entryDy=0;" edge="1" parent="1" source="IVClyzHklUzwyvKMVS32-14" target="IVClyzHklUzwyvKMVS32-15">
          <mxGeometry relative="1" as="geometry" />
        </mxCell>
        <mxCell id="IVClyzHklUzwyvKMVS32-14" value="Cung cấp thông tin" style="rounded=1;whiteSpace=wrap;html=1;" vertex="1" parent="1">
          <mxGeometry x="110" y="400" width="100" height="40" as="geometry" />
        </mxCell>
        <mxCell id="IVClyzHklUzwyvKMVS32-33" style="edgeStyle=orthogonalEdgeStyle;rounded=0;orthogonalLoop=1;jettySize=auto;html=1;exitX=1;exitY=0.5;exitDx=0;exitDy=0;entryX=0;entryY=0.5;entryDx=0;entryDy=0;" edge="1" parent="1" source="IVClyzHklUzwyvKMVS32-15" target="IVClyzHklUzwyvKMVS32-18">
          <mxGeometry relative="1" as="geometry" />
        </mxCell>
        <mxCell id="IVClyzHklUzwyvKMVS32-15" value="Tạo phiếu giao dịch đặt vé" style="rounded=1;whiteSpace=wrap;html=1;" vertex="1" parent="1">
          <mxGeometry x="360" y="400" width="100" height="40" as="geometry" />
        </mxCell>
        <mxCell id="IVClyzHklUzwyvKMVS32-16" value="Hệ thống" style="text;html=1;align=center;verticalAlign=middle;resizable=0;points=[];autosize=1;strokeColor=none;fillColor=none;" vertex="1" parent="1">
          <mxGeometry x="875" y="129" width="70" height="30" as="geometry" />
        </mxCell>
        <mxCell id="IVClyzHklUzwyvKMVS32-17" value="" style="endArrow=none;dashed=1;html=1;rounded=0;" edge="1" parent="1">
          <mxGeometry width="50" height="50" relative="1" as="geometry">
            <mxPoint x="840" y="550" as="sourcePoint" />
            <mxPoint x="840" y="120" as="targetPoint" />
          </mxGeometry>
        </mxCell>
        <mxCell id="IVClyzHklUzwyvKMVS32-18" value="Gửi email xác nhận đặt chỗ" style="rounded=1;whiteSpace=wrap;html=1;" vertex="1" parent="1">
          <mxGeometry x="880" y="400" width="100" height="40" as="geometry" />
        </mxCell>
        <mxCell id="IVClyzHklUzwyvKMVS32-19" value="" style="ellipse;whiteSpace=wrap;html=1;aspect=fixed;" vertex="1" parent="1">
          <mxGeometry x="740" y="321" width="20" height="20" as="geometry" />
        </mxCell>
        <mxCell id="IVClyzHklUzwyvKMVS32-20" value="" style="shape=waypoint;sketch=0;fillStyle=solid;size=6;pointerEvents=1;points=[];fillColor=none;resizable=0;rotatable=0;perimeter=centerPerimeter;snapToPoint=1;strokeWidth=3;" vertex="1" parent="1">
          <mxGeometry x="740" y="321" width="20" height="20" as="geometry" />
        </mxCell>
        <mxCell id="IVClyzHklUzwyvKMVS32-27" style="edgeStyle=orthogonalEdgeStyle;rounded=0;orthogonalLoop=1;jettySize=auto;html=1;exitX=0.5;exitY=1;exitDx=0;exitDy=0;" edge="1" parent="1">
          <mxGeometry relative="1" as="geometry">
            <mxPoint x="930" y="490" as="targetPoint" />
            <mxPoint x="930" y="440" as="sourcePoint" />
          </mxGeometry>
        </mxCell>
        <mxCell id="IVClyzHklUzwyvKMVS32-28" value="" style="ellipse;whiteSpace=wrap;html=1;aspect=fixed;" vertex="1" parent="1">
          <mxGeometry x="920" y="491" width="20" height="20" as="geometry" />
        </mxCell>
        <mxCell id="IVClyzHklUzwyvKMVS32-29" value="" style="shape=waypoint;sketch=0;fillStyle=solid;size=6;pointerEvents=1;points=[];fillColor=none;resizable=0;rotatable=0;perimeter=centerPerimeter;snapToPoint=1;strokeWidth=3;" vertex="1" parent="1">
          <mxGeometry x="920" y="491" width="20" height="20" as="geometry" />
        </mxCell>
        <mxCell id="IVClyzHklUzwyvKMVS32-34" value="Nhân viên" style="text;html=1;align=center;verticalAlign=middle;resizable=0;points=[];autosize=1;strokeColor=none;fillColor=none;" vertex="1" parent="1">
          <mxGeometry x="140" y="783" width="72" height="26" as="geometry" />
        </mxCell>
        <mxCell id="IVClyzHklUzwyvKMVS32-35" value="Hệ thống" style="text;html=1;align=center;verticalAlign=middle;resizable=0;points=[];autosize=1;strokeColor=none;fillColor=none;" vertex="1" parent="1">
          <mxGeometry x="584" y="786" width="67" height="26" as="geometry" />
        </mxCell>
        <mxCell id="IVClyzHklUzwyvKMVS32-36" value="" style="endArrow=none;dashed=1;html=1;rounded=0;" edge="1" parent="1">
          <mxGeometry width="50" height="50" relative="1" as="geometry">
            <mxPoint x="280" y="1507" as="sourcePoint" />
            <mxPoint x="276" y="772" as="targetPoint" />
          </mxGeometry>
        </mxCell>
        <mxCell id="IVClyzHklUzwyvKMVS32-37" value="" style="endArrow=none;dashed=1;html=1;rounded=0;" edge="1" parent="1">
          <mxGeometry width="50" height="50" relative="1" as="geometry">
            <mxPoint x="86" y="812" as="sourcePoint" />
            <mxPoint x="966" y="812" as="targetPoint" />
          </mxGeometry>
        </mxCell>
        <mxCell id="IVClyzHklUzwyvKMVS32-38" value="" style="html=1;verticalAlign=bottom;startArrow=circle;startFill=1;endArrow=open;startSize=6;endSize=8;curved=0;rounded=0;" edge="1" parent="1">
          <mxGeometry width="80" relative="1" as="geometry">
            <mxPoint x="166" y="832" as="sourcePoint" />
            <mxPoint x="166" y="872" as="targetPoint" />
          </mxGeometry>
        </mxCell>
        <mxCell id="IVClyzHklUzwyvKMVS32-78" style="edgeStyle=orthogonalEdgeStyle;rounded=0;orthogonalLoop=1;jettySize=auto;html=1;exitX=1;exitY=0.5;exitDx=0;exitDy=0;entryX=0;entryY=0.5;entryDx=0;entryDy=0;" edge="1" parent="1" source="IVClyzHklUzwyvKMVS32-63" target="IVClyzHklUzwyvKMVS32-65">
          <mxGeometry relative="1" as="geometry" />
        </mxCell>
        <mxCell id="IVClyzHklUzwyvKMVS32-63" value="Yêu cầu chức năng quản lý chuyến bay" style="rounded=1;whiteSpace=wrap;html=1;" vertex="1" parent="1">
          <mxGeometry x="115" y="873" width="110" height="38" as="geometry" />
        </mxCell>
        <mxCell id="IVClyzHklUzwyvKMVS32-79" style="edgeStyle=orthogonalEdgeStyle;rounded=0;orthogonalLoop=1;jettySize=auto;html=1;exitX=0.5;exitY=1;exitDx=0;exitDy=0;entryX=0.5;entryY=0;entryDx=0;entryDy=0;" edge="1" parent="1" source="IVClyzHklUzwyvKMVS32-65" target="IVClyzHklUzwyvKMVS32-66">
          <mxGeometry relative="1" as="geometry" />
        </mxCell>
        <mxCell id="IVClyzHklUzwyvKMVS32-65" value="Hiển thị danh sách chức năng" style="rounded=1;whiteSpace=wrap;html=1;" vertex="1" parent="1">
          <mxGeometry x="377" y="873" width="110" height="38" as="geometry" />
        </mxCell>
        <mxCell id="IVClyzHklUzwyvKMVS32-92" style="edgeStyle=orthogonalEdgeStyle;rounded=0;orthogonalLoop=1;jettySize=auto;html=1;exitX=0.5;exitY=1;exitDx=0;exitDy=0;entryX=0.5;entryY=0;entryDx=0;entryDy=0;" edge="1" parent="1" source="IVClyzHklUzwyvKMVS32-66" target="IVClyzHklUzwyvKMVS32-88">
          <mxGeometry relative="1" as="geometry" />
        </mxCell>
        <mxCell id="IVClyzHklUzwyvKMVS32-66" value="Lựa chọn chức năng (CRUD)" style="rounded=1;whiteSpace=wrap;html=1;" vertex="1" parent="1">
          <mxGeometry x="113" y="967" width="110" height="38" as="geometry" />
        </mxCell>
        <mxCell id="IVClyzHklUzwyvKMVS32-81" style="edgeStyle=orthogonalEdgeStyle;rounded=0;orthogonalLoop=1;jettySize=auto;html=1;exitX=0.5;exitY=1;exitDx=0;exitDy=0;entryX=0.5;entryY=0;entryDx=0;entryDy=0;" edge="1" parent="1" source="IVClyzHklUzwyvKMVS32-68" target="IVClyzHklUzwyvKMVS32-69">
          <mxGeometry relative="1" as="geometry" />
        </mxCell>
        <mxCell id="IVClyzHklUzwyvKMVS32-68" value="Yêu cầu thông tin đầu vào" style="rounded=1;whiteSpace=wrap;html=1;" vertex="1" parent="1">
          <mxGeometry x="381.5" y="1157" width="110" height="38" as="geometry" />
        </mxCell>
        <mxCell id="IVClyzHklUzwyvKMVS32-82" style="edgeStyle=orthogonalEdgeStyle;rounded=0;orthogonalLoop=1;jettySize=auto;html=1;exitX=1;exitY=0.5;exitDx=0;exitDy=0;entryX=0;entryY=0.5;entryDx=0;entryDy=0;" edge="1" parent="1" source="IVClyzHklUzwyvKMVS32-69" target="IVClyzHklUzwyvKMVS32-70">
          <mxGeometry relative="1" as="geometry" />
        </mxCell>
        <mxCell id="IVClyzHklUzwyvKMVS32-69" value="Nhập thông tin" style="rounded=1;whiteSpace=wrap;html=1;" vertex="1" parent="1">
          <mxGeometry x="120" y="1262" width="110" height="38" as="geometry" />
        </mxCell>
        <mxCell id="IVClyzHklUzwyvKMVS32-74" style="edgeStyle=orthogonalEdgeStyle;rounded=0;orthogonalLoop=1;jettySize=auto;html=1;exitX=1;exitY=0.5;exitDx=0;exitDy=0;entryX=0;entryY=0.5;entryDx=0;entryDy=0;" edge="1" parent="1" source="IVClyzHklUzwyvKMVS32-70" target="IVClyzHklUzwyvKMVS32-71">
          <mxGeometry relative="1" as="geometry" />
        </mxCell>
        <mxCell id="IVClyzHklUzwyvKMVS32-70" value="Kiểm tra thông tin đầu vào" style="rounded=1;whiteSpace=wrap;html=1;" vertex="1" parent="1">
          <mxGeometry x="381.5" y="1262" width="110" height="38" as="geometry" />
        </mxCell>
        <mxCell id="IVClyzHklUzwyvKMVS32-72" style="edgeStyle=orthogonalEdgeStyle;rounded=0;orthogonalLoop=1;jettySize=auto;html=1;exitX=0.5;exitY=0;exitDx=0;exitDy=0;entryX=1;entryY=0.5;entryDx=0;entryDy=0;" edge="1" parent="1" source="IVClyzHklUzwyvKMVS32-71" target="IVClyzHklUzwyvKMVS32-68">
          <mxGeometry relative="1" as="geometry" />
        </mxCell>
        <mxCell id="IVClyzHklUzwyvKMVS32-75" style="rounded=0;orthogonalLoop=1;jettySize=auto;html=1;exitX=0.5;exitY=1;exitDx=0;exitDy=0;" edge="1" parent="1" source="IVClyzHklUzwyvKMVS32-71" target="IVClyzHklUzwyvKMVS32-76">
          <mxGeometry relative="1" as="geometry">
            <mxPoint x="760" y="1281" as="targetPoint" />
          </mxGeometry>
        </mxCell>
        <mxCell id="IVClyzHklUzwyvKMVS32-71" value="" style="rhombus;whiteSpace=wrap;html=1;" vertex="1" parent="1">
          <mxGeometry x="547" y="1255" width="104" height="52" as="geometry" />
        </mxCell>
        <mxCell id="IVClyzHklUzwyvKMVS32-73" value="Không hợp lệ" style="text;html=1;align=center;verticalAlign=middle;resizable=0;points=[];autosize=1;strokeColor=none;fillColor=none;" vertex="1" parent="1">
          <mxGeometry x="504" y="1155" width="90" height="26" as="geometry" />
        </mxCell>
        <mxCell id="IVClyzHklUzwyvKMVS32-98" style="edgeStyle=orthogonalEdgeStyle;rounded=0;orthogonalLoop=1;jettySize=auto;html=1;exitX=1;exitY=0.5;exitDx=0;exitDy=0;" edge="1" parent="1" source="IVClyzHklUzwyvKMVS32-76" target="IVClyzHklUzwyvKMVS32-97">
          <mxGeometry relative="1" as="geometry" />
        </mxCell>
        <mxCell id="IVClyzHklUzwyvKMVS32-76" value="Thực hiện thay đổi" style="rounded=1;whiteSpace=wrap;html=1;" vertex="1" parent="1">
          <mxGeometry x="544" y="1406" width="110" height="38" as="geometry" />
        </mxCell>
        <mxCell id="IVClyzHklUzwyvKMVS32-77" value="Hợp lệ" style="text;html=1;align=center;verticalAlign=middle;resizable=0;points=[];autosize=1;strokeColor=none;fillColor=none;" vertex="1" parent="1">
          <mxGeometry x="542" y="1341" width="54" height="26" as="geometry" />
        </mxCell>
        <mxCell id="IVClyzHklUzwyvKMVS32-83" value="" style="ellipse;whiteSpace=wrap;html=1;aspect=fixed;" vertex="1" parent="1">
          <mxGeometry x="922" y="1271" width="20" height="20" as="geometry" />
        </mxCell>
        <mxCell id="IVClyzHklUzwyvKMVS32-84" value="" style="shape=waypoint;sketch=0;fillStyle=solid;size=6;pointerEvents=1;points=[];fillColor=none;resizable=0;rotatable=0;perimeter=centerPerimeter;snapToPoint=1;strokeWidth=3;" vertex="1" parent="1">
          <mxGeometry x="922" y="1271" width="20" height="20" as="geometry" />
        </mxCell>
        <mxCell id="IVClyzHklUzwyvKMVS32-90" style="edgeStyle=orthogonalEdgeStyle;rounded=0;orthogonalLoop=1;jettySize=auto;html=1;exitX=1;exitY=0.5;exitDx=0;exitDy=0;" edge="1" parent="1" source="IVClyzHklUzwyvKMVS32-88" target="IVClyzHklUzwyvKMVS32-89">
          <mxGeometry relative="1" as="geometry" />
        </mxCell>
        <mxCell id="IVClyzHklUzwyvKMVS32-94" style="edgeStyle=orthogonalEdgeStyle;rounded=0;orthogonalLoop=1;jettySize=auto;html=1;exitX=0.5;exitY=1;exitDx=0;exitDy=0;entryX=0;entryY=0.5;entryDx=0;entryDy=0;" edge="1" parent="1" source="IVClyzHklUzwyvKMVS32-88" target="IVClyzHklUzwyvKMVS32-68">
          <mxGeometry relative="1" as="geometry" />
        </mxCell>
        <mxCell id="IVClyzHklUzwyvKMVS32-88" value="" style="rhombus;whiteSpace=wrap;html=1;" vertex="1" parent="1">
          <mxGeometry x="116" y="1058" width="104" height="52" as="geometry" />
        </mxCell>
        <mxCell id="IVClyzHklUzwyvKMVS32-96" style="edgeStyle=orthogonalEdgeStyle;rounded=0;orthogonalLoop=1;jettySize=auto;html=1;exitX=1;exitY=0.5;exitDx=0;exitDy=0;" edge="1" parent="1" source="IVClyzHklUzwyvKMVS32-89">
          <mxGeometry relative="1" as="geometry">
            <mxPoint x="930" y="1271.5999755859375" as="targetPoint" />
            <mxPoint x="481" y="1055" as="sourcePoint" />
          </mxGeometry>
        </mxCell>
        <mxCell id="IVClyzHklUzwyvKMVS32-89" value="Hiển thị thông tin cần xem" style="rounded=1;whiteSpace=wrap;html=1;" vertex="1" parent="1">
          <mxGeometry x="371" y="1065" width="110" height="38" as="geometry" />
        </mxCell>
        <mxCell id="IVClyzHklUzwyvKMVS32-91" value="chọn chức năng xem" style="text;html=1;align=center;verticalAlign=middle;resizable=0;points=[];autosize=1;strokeColor=none;fillColor=none;" vertex="1" parent="1">
          <mxGeometry x="219" y="1061" width="130" height="26" as="geometry" />
        </mxCell>
        <mxCell id="IVClyzHklUzwyvKMVS32-95" value="Chọn chức năng thêm, sửa, xóa" style="text;html=1;align=center;verticalAlign=middle;resizable=0;points=[];autosize=1;strokeColor=none;fillColor=none;" vertex="1" parent="1">
          <mxGeometry x="181" y="1153" width="190" height="26" as="geometry" />
        </mxCell>
        <mxCell id="IVClyzHklUzwyvKMVS32-97" value="Trả về thông báo" style="rounded=1;whiteSpace=wrap;html=1;" vertex="1" parent="1">
          <mxGeometry x="876" y="1406" width="110" height="38" as="geometry" />
        </mxCell>
        <mxCell id="IVClyzHklUzwyvKMVS32-99" style="edgeStyle=orthogonalEdgeStyle;rounded=0;orthogonalLoop=1;jettySize=auto;html=1;entryX=0.626;entryY=1.197;entryDx=0;entryDy=0;entryPerimeter=0;" edge="1" parent="1">
          <mxGeometry relative="1" as="geometry">
            <mxPoint x="932" y="1405" as="sourcePoint" />
            <mxPoint x="932" y="1291" as="targetPoint" />
          </mxGeometry>
        </mxCell>
      </root>
    </mxGraphModel>
  </diagram>
</mxfile>
